<?xml version="1.0" standalone="no"?>
<!DOCTYPE svg PUBLIC "-//W3C//DTD SVG 20010904//EN"
 "http://www.w3.org/TR/2001/REC-SVG-20010904/DTD/svg10.dtd">
<svg version="1.0" xmlns="http://www.w3.org/2000/svg"
 width="640.000000pt" height="640.000000pt" viewBox="0 0 640.000000 640.000000"
 preserveAspectRatio="xMidYMid meet">
<metadata>
Created by potrace 1.14, written by Peter Selinger 2001-2017
</metadata>
<g transform="translate(0.000000,640.000000) scale(0.100000,-0.100000)"
fill="#000000" stroke="none">
<path d="M5029 6390 c-163 -28 -255 -171 -219 -340 7 -33 10 -64 6 -67 -4 -4
-46 0 -94 10 -206 39 -323 44 -499 20 -40 -5 -43 -4 -44 18 l0 24 -9 -23 c-11
-26 -47 -42 -94 -42 -17 0 -36 -4 -41 -9 -6 -5 -37 -19 -70 -32 -86 -35 -178
-86 -224 -125 -21 -19 -41 -34 -44 -34 -3 0 -8 24 -12 53 -4 28 -18 72 -32 96
-25 43 -25 44 -13 135 14 103 8 158 -21 187 -23 23 -29 23 -55 5 -26 -20 -34
-174 -10 -230 14 -33 14 -43 1 -94 -9 -32 -15 -101 -15 -158 0 -97 -1 -102
-22 -108 -40 -10 -1558 -7 -1578 4 -17 9 -17 14 -4 82 8 40 21 96 29 126 9 30
14 56 11 59 -13 14 -67 -241 -65 -307 1 -23 3 -28 6 -12 l4 22 807 -2 807 -3
6 -105 c18 -285 21 -392 11 -389 -5 2 -37 41 -71 86 -186 248 -389 342 -711
329 -153 -5 -227 -22 -317 -71 -84 -46 -149 -101 -216 -185 -39 -48 -114 -204
-127 -264 -14 -64 -17 -68 -43 -55 l-21 12 18 -29 c41 -65 98 -132 138 -165
24 -18 75 -63 113 -99 39 -36 89 -78 113 -93 67 -43 53 -61 -26 -33 -61 22
-263 134 -297 165 -16 16 -52 39 -80 51 -27 13 -69 39 -93 58 -23 19 -42 30
-42 25 0 -13 26 -35 80 -66 85 -50 99 -66 119 -147 20 -78 68 -184 128 -282
21 -35 32 -65 28 -75 -3 -10 -25 -32 -48 -50 -23 -17 -74 -63 -113 -102 -63
-64 -90 -97 -169 -211 -39 -56 -116 -211 -112 -224 2 -6 23 25 46 69 69 133
97 178 160 255 129 157 302 298 481 389 47 24 90 47 95 51 16 12 214 77 300
98 145 36 189 43 315 48 129 6 164 11 239 39 24 9 73 22 108 29 l65 14 18 -31
c25 -40 195 -438 225 -525 26 -76 99 -246 120 -278 7 -12 25 -48 39 -82 37
-87 178 -341 248 -447 67 -100 244 -284 348 -360 121 -88 299 -164 668 -283
45 -14 82 -30 82 -33 0 -30 -201 -121 -333 -150 -87 -20 -96 -24 -84 -38 8 -9
19 -50 26 -91 7 -41 16 -84 21 -95 5 -11 23 -56 40 -100 32 -82 67 -155 114
-235 41 -71 30 -36 -23 75 -93 193 -154 406 -124 436 5 5 59 27 119 48 120 42
182 71 231 107 55 42 49 86 73 -490 9 -215 7 -607 -5 -844 -7 -129 -37 -373
-70 -560 -31 -178 -31 -186 0 -200 28 -13 45 2 19 16 -18 10 -18 18 6 147 19
106 58 416 71 560 15 173 5 966 -15 1250 -8 105 -12 193 -9 198 2 4 41 7 86 7
148 1 186 20 187 95 0 37 -6 45 -79 115 -43 41 -105 98 -138 126 -74 65 -128
163 -118 215 3 19 -3 84 -14 151 -28 157 -27 231 3 294 12 27 26 61 30 76 5
23 15 30 59 43 91 26 159 36 172 25 18 -15 33 -75 64 -263 l28 -168 80 -82 80
-82 11 -75 c14 -90 24 -284 26 -510 1 -135 4 -171 19 -200 l17 -35 -7 55 c-4
30 -8 143 -9 250 -3 318 -16 467 -48 528 -8 16 -48 60 -89 98 l-74 69 -7 95
c-10 130 -33 257 -54 299 -22 46 -57 55 -142 39 -36 -7 -69 -13 -74 -13 -12 0
-37 145 -28 161 4 7 57 53 117 104 172 144 262 240 277 296 8 27 22 53 34 61
12 8 34 32 49 53 23 33 27 46 21 80 -4 28 -1 50 9 70 21 41 19 63 -10 90 -14
13 -25 32 -25 41 0 10 25 44 57 76 136 140 207 252 219 348 4 30 15 60 29 75
59 68 81 119 60 146 -25 35 -113 -17 -137 -81 -6 -19 -19 -37 -28 -40 -24 -8
-102 -85 -137 -135 -16 -25 -49 -82 -71 -127 -23 -45 -46 -84 -52 -88 -6 -4
-17 10 -26 32 -45 108 -99 223 -126 266 -26 40 -30 54 -24 90 5 38 5 40 -7 19
l-13 -23 -20 23 c-11 13 -40 50 -65 82 -24 33 -65 80 -91 105 -27 25 -48 49
-48 54 0 4 227 7 505 7 318 0 505 4 505 10 0 6 -197 10 -527 12 l-528 3 -67
52 c-37 28 -91 66 -121 84 -46 27 -56 38 -61 68 -6 38 4 57 37 67 74 22 124
99 134 207 7 80 -15 144 -65 188 -55 48 -101 61 -173 49z m104 -26 c45 -23 76
-53 98 -96 25 -50 25 -148 0 -205 -20 -43 -85 -99 -128 -109 -20 -5 -23 -12
-23 -58 0 -48 -5 -58 -60 -132 -65 -86 -65 -92 11 -93 44 -1 120 -27 145 -49
11 -9 35 -29 54 -43 19 -15 53 -44 76 -65 81 -77 110 -100 214 -169 l105 -71
1 -109 c0 -103 2 -115 37 -199 23 -56 37 -105 37 -132 0 -47 15 -58 30 -21 5
12 25 37 44 55 19 19 40 50 47 70 20 63 99 214 145 279 25 34 65 76 89 93 25
17 53 43 62 58 25 41 65 82 80 82 22 0 15 -29 -27 -100 -22 -37 -50 -101 -63
-141 -29 -93 -73 -161 -173 -269 -130 -140 -122 -123 -78 -163 36 -33 37 -35
25 -66 -8 -18 -11 -50 -8 -77 5 -44 2 -50 -50 -117 -30 -39 -57 -83 -60 -98
-5 -25 -66 -89 -253 -264 -64 -60 -113 -95 -132 -95 -16 0 -40 63 -41 105 -1
54 199 427 283 530 9 11 24 33 34 48 17 27 17 28 -3 15 -18 -11 -24 -7 -63 36
-45 52 -114 89 -205 111 -51 12 -52 12 -62 -14 -5 -14 -13 -42 -16 -61 -9 -44
-47 -95 -86 -115 -37 -20 -49 -13 -49 30 0 27 12 45 71 106 l71 73 -5 141 c-3
96 -10 154 -22 185 -38 102 -83 187 -114 215 -19 17 -43 41 -55 54 -54 60
-191 125 -208 99 -4 -7 -27 -47 -49 -88 -23 -41 -51 -88 -63 -105 -11 -16 -51
-88 -88 -160 -77 -148 -83 -142 -44 40 62 288 87 417 83 421 -2 3 -33 9 -68
15 -75 12 -151 6 -269 -23 -158 -37 -259 -101 -320 -199 -27 -44 -50 -63 -50
-41 0 24 -106 116 -166 144 -59 28 -72 30 -136 26 -40 -3 -75 -11 -83 -19 -7
-8 -23 -75 -35 -149 -25 -150 -28 -165 -36 -157 -9 8 -14 100 -20 337 -4 171
-2 240 8 285 11 48 12 70 2 110 -22 90 -13 195 15 195 6 0 17 -13 26 -29 12
-25 13 -46 6 -120 -10 -90 -8 -104 23 -186 10 -25 15 -76 16 -137 0 -54 2 -98
5 -98 2 0 21 11 41 25 42 29 84 41 170 51 49 5 67 12 95 38 19 17 55 51 82 75
l47 44 58 -55 c78 -74 92 -81 134 -64 18 8 67 20 108 26 68 12 83 11 170 -9
52 -13 114 -31 137 -41 53 -23 58 -18 71 83 9 66 14 81 40 106 30 27 30 29 17
67 -19 53 -19 155 1 204 19 46 109 126 152 136 15 3 32 7 37 9 26 9 79 3 108
-11z m-586 -364 c79 -10 214 -40 225 -49 4 -3 3 -13 -2 -20 -7 -12 -15 -13
-48 -3 -68 21 -85 16 -143 -41 -54 -53 -55 -53 -104 -48 -43 5 -51 9 -55 31
-3 14 -13 40 -24 59 l-18 34 -127 -6 c-113 -6 -155 -14 -256 -45 -43 -14 -145
-62 -178 -85 -40 -28 -45 -14 -5 16 133 99 335 152 628 165 19 1 68 -3 107 -8z
m591 -198 c15 -10 50 -34 77 -52 63 -43 103 -76 187 -157 73 -71 154 -170 145
-179 -3 -3 -29 18 -59 48 -96 96 -239 217 -324 275 -83 56 -90 63 -77 76 10
11 22 8 51 -11z m-658 -157 c7 -8 10 -25 6 -40 -5 -20 -13 -25 -36 -25 -23 0
-31 5 -36 25 -7 29 10 55 36 55 10 0 23 -7 30 -15z m-1441 -124 c216 -57 379
-198 509 -440 22 -41 46 -77 54 -82 7 -4 70 -19 138 -33 248 -51 455 -156 860
-438 89 -62 229 -194 308 -292 31 -39 60 -73 63 -76 11 -10 86 -115 98 -138
10 -19 9 -28 -7 -56 -11 -18 -25 -50 -32 -71 -7 -21 -27 -66 -44 -99 -26 -52
-31 -71 -30 -128 1 -52 -1 -68 -12 -68 -8 0 -14 4 -14 9 0 5 -73 85 -162 176
-283 291 -492 461 -738 603 -136 78 -155 85 -140 50 46 -114 82 -210 78 -214
-6 -5 -126 221 -197 371 -29 61 -57 119 -63 130 -20 36 -86 170 -131 265 -24
52 -66 122 -93 155 -27 33 -56 69 -64 80 -26 34 -161 165 -170 165 -5 0 -12
-9 -15 -20 -3 -11 -13 -20 -20 -20 -22 0 -85 73 -85 98 0 29 -24 38 -160 63
-122 22 -188 24 -285 10 -77 -11 -94 -8 -43 7 54 18 77 19 198 17 80 -1 140
-9 199 -24z m1019 -230 c-7 -111 -34 -156 -74 -126 -35 25 -15 120 44 213 14
21 16 22 25 7 5 -10 7 -52 5 -94z m1238 -1126 c31 -33 41 -60 72 -188 7 -26
12 -67 12 -92 0 -63 -22 -58 -43 9 -10 30 -26 65 -37 78 l-20 23 14 -34 c8
-22 11 -46 6 -67 -4 -18 -6 -61 -4 -94 4 -48 2 -60 -10 -60 -8 0 -16 4 -18 8
-6 16 -118 94 -129 90 -12 -4 96 -90 150 -120 29 -16 31 -20 19 -40 -6 -13
-11 -33 -9 -45 2 -19 -2 -23 -24 -23 -15 0 -24 -4 -20 -10 3 -5 17 -10 31 -10
23 0 24 -2 22 -62 0 -35 2 -78 6 -95 9 -40 -2 -83 -15 -62 -7 11 -9 10 -9 -4
0 -10 -5 -15 -11 -12 -6 4 -16 -1 -24 -11 -11 -15 -30 -20 -99 -23 l-85 -3 -7
28 c-4 16 -17 49 -30 74 -35 68 -40 97 -17 102 15 4 13 7 -10 18 -15 7 -30 24
-33 37 -8 29 11 130 39 208 21 58 23 60 60 63 37 3 43 22 6 22 -25 0 -24 8 8
72 36 70 53 117 47 133 -9 23 25 84 58 105 46 28 66 25 104 -15z m40 -311 c11
-49 11 -61 -2 -86 -8 -15 -17 -28 -19 -28 -3 0 -5 41 -5 92 0 50 3 89 6 85 4
-3 12 -32 20 -63z m9 -534 c6 -36 3 -44 -35 -88 -38 -46 -45 -50 -96 -55 -31
-3 -61 -4 -67 -1 -13 5 -67 95 -67 112 0 5 33 12 73 14 53 3 85 11 122 30 28
15 53 27 57 27 3 1 9 -17 13 -39z m-177 -477 c32 -9 50 -18 42 -20 -8 -2 -40
5 -70 16 -68 24 -48 27 28 4z"/>
<path d="M5014 6310 c-76 -17 -128 -88 -137 -185 -5 -58 6 -95 27 -95 9 0 38
20 66 45 28 25 55 43 60 40 4 -3 11 -32 15 -65 6 -47 11 -60 24 -60 30 0 99
68 111 108 12 46 13 113 1 145 -20 51 -98 82 -167 67z m114 -36 c65 -42 50
-192 -23 -240 -32 -21 -45 -11 -45 34 0 51 -10 82 -25 82 -8 0 -38 -22 -68
-50 -30 -27 -57 -47 -61 -43 -12 13 -6 116 10 148 14 30 66 74 104 88 22 9 81
-2 108 -19z"/>
<path d="M4053 5778 c-32 -35 -43 -88 -27 -126 16 -38 17 -38 45 -9 31 32 39
62 32 112 -6 50 -19 56 -50 23z"/>
<path d="M6045 5240 c-10 -11 -13 -20 -8 -20 6 0 16 7 23 15 7 8 16 12 21 9 5
-3 9 0 9 5 0 18 -26 12 -45 -9z"/>
<path d="M5509 5200 c-21 -12 -69 -103 -69 -129 0 -30 15 -33 53 -11 37 22 67
79 67 125 0 27 -21 33 -51 15z"/>
<path d="M5977 5153 c-28 -45 -50 -104 -41 -112 3 -3 10 2 15 12 14 25 32 21
24 -5 -9 -30 9 -13 33 30 43 77 62 116 49 100 -8 -10 -31 -29 -51 -43 l-36
-25 20 40 c26 51 18 52 -13 3z"/>
<path d="M5155 4060 c3 -5 10 -10 16 -10 5 0 9 5 9 10 0 6 -7 10 -16 10 -8 0
-12 -4 -9 -10z"/>
<path d="M5220 4044 c0 -9 32 -33 44 -34 5 0 1 9 -9 20 -18 20 -35 26 -35 14z"/>
<path d="M5219 3690 c13 -11 32 -20 44 -20 26 0 20 6 -29 25 l-39 16 24 -21z"/>
<path d="M5080 3671 c0 -5 5 -13 10 -16 6 -3 10 -2 10 4 0 5 -4 13 -10 16 -5
3 -10 2 -10 -4z"/>
<path d="M5088 3513 c12 -2 30 -2 40 0 9 3 -1 5 -23 4 -22 0 -30 -2 -17 -4z"/>
<path d="M5218 3503 c6 -2 18 -2 25 0 6 3 1 5 -13 5 -14 0 -19 -2 -12 -5z"/>
<path d="M2015 6172 c-64 -27 -127 -68 -160 -102 -27 -29 -24 -28 25 9 185
140 314 120 407 -62 19 -38 33 -73 31 -77 -2 -5 -30 13 -63 41 -86 71 -196
109 -223 77 -8 -10 2 -14 41 -16 95 -4 208 -82 263 -180 11 -20 25 -35 30 -32
15 9 3 64 -31 137 -72 154 -129 209 -225 217 -39 4 -67 0 -95 -12z"/>
<path d="M4098 6114 c-16 -8 -28 -20 -28 -26 0 -6 9 -3 20 7 12 11 30 16 49
13 25 -4 28 -2 20 9 -14 16 -27 16 -61 -3z"/>
<path d="M1780 5993 c-24 -28 -90 -123 -90 -128 0 -14 20 -2 25 15 3 11 12 26
18 33 12 13 47 62 61 85 11 18 3 15 -14 -5z"/>
<path d="M1657 5796 c-15 -30 -27 -61 -27 -68 0 -8 -7 -24 -16 -36 l-15 -22
-800 0 c-526 0 -799 -3 -799 -10 0 -7 274 -10 801 -10 l802 0 -5 -65 c-3 -36
-2 -62 3 -59 5 3 9 25 9 50 0 53 30 164 60 223 12 24 20 45 17 47 -2 2 -16
-20 -30 -50z"/>
<path d="M1601 5464 c-1 -59 28 -180 59 -248 32 -68 35 -50 4 30 -39 104 -45
123 -53 199 -8 67 -8 68 -10 19z"/>
<path d="M5663 5453 c-10 -10 -14 -15 -9 -10 18 13 56 7 76 -13 11 -11 20 -16
20 -12 0 12 -44 52 -57 52 -6 0 -19 -8 -30 -17z"/>
<path d="M1932 5355 c0 -11 4 -31 8 -45 6 -20 8 -21 8 -5 0 11 -4 31 -8 45 -6
20 -8 21 -8 5z"/>
<path d="M5746 5345 c-4 -14 -20 -32 -39 -41 -21 -12 -27 -19 -18 -22 17 -6
71 51 71 73 0 23 -7 18 -14 -10z"/>
<path d="M1697 5142 c3 -12 9 -25 14 -28 14 -8 11 10 -6 32 -13 18 -14 18 -8
-4z"/>
<path d="M1991 5124 c0 -11 3 -14 6 -6 3 7 2 16 -1 19 -3 4 -6 -2 -5 -13z"/>
<path d="M1727 5080 c3 -10 11 -25 19 -31 8 -6 14 -17 14 -23 0 -12 100 -120
106 -113 2 2 -18 28 -44 58 -27 30 -58 71 -71 92 -25 42 -32 46 -24 17z"/>
<path d="M2010 5071 c0 -5 5 -13 10 -16 6 -3 10 -2 10 4 0 5 -4 13 -10 16 -5
3 -10 2 -10 -4z"/>
<path d="M3267 4043 c-13 -21 -29 -54 -37 -73 -8 -19 -24 -52 -37 -72 -13 -21
-23 -40 -23 -44 0 -11 -82 -148 -149 -249 -36 -55 -95 -130 -131 -166 -81 -83
-194 -222 -199 -246 -2 -10 -19 -35 -37 -57 -19 -22 -34 -45 -34 -51 0 -6 -13
-32 -29 -57 -24 -38 -38 -49 -83 -63 -61 -20 -83 -35 -50 -35 12 0 22 -6 21
-12 0 -7 -64 -69 -141 -138 -149 -133 -237 -242 -223 -277 5 -14 12 -6 31 37
18 38 50 79 111 139 49 47 89 79 91 72 2 -7 -4 -63 -13 -124 -20 -132 -14
-251 15 -300 12 -20 16 -35 10 -42 -6 -7 0 -21 16 -40 29 -33 53 -77 65 -115
7 -24 7 -24 8 -2 1 29 14 28 59 -5 20 -15 10 -2 -23 29 -34 31 -70 75 -82 99
-55 116 -58 128 -58 259 0 113 3 133 29 207 29 83 82 152 150 196 37 24 50 22
116 -23 32 -22 62 -40 65 -40 3 0 -5 15 -19 33 -37 48 -33 63 21 81 25 9 48
14 51 11 3 -2 0 -24 -7 -47 -19 -74 -18 -102 3 -106 11 -2 16 0 12 7 -4 6 2
30 12 54 46 104 225 119 295 25 10 -14 21 -43 24 -66 6 -44 9 -47 33 -32 12 7
15 30 15 100 0 49 1 90 3 90 9 0 121 -33 160 -47 23 -9 45 -13 48 -10 10 10
-46 86 -73 101 -46 23 -173 47 -263 49 l-85 2 0 40 c0 33 -3 40 -20 40 -17 0
-19 -6 -17 -33 4 -42 -12 -62 -52 -62 -17 0 -57 -6 -88 -14 -64 -15 -78 -9
-78 34 0 48 57 143 140 232 65 70 87 87 113 90 18 2 30 8 28 13 -1 6 -7 9 -12
7 -17 -4 -9 13 39 84 135 202 163 246 205 329 26 50 51 104 57 120 10 27 12
28 22 11 6 -10 8 -38 4 -62 -7 -53 17 -252 43 -354 17 -69 18 -76 3 -88 -15
-11 -15 -13 5 -18 23 -6 52 -63 73 -144 10 -38 40 -96 40 -78 0 3 -12 39 -26
80 -35 100 -71 225 -96 338 -17 75 -22 129 -22 258 -1 89 -2 162 -3 162 -2 0
-13 -17 -26 -37z"/>
<path d="M1765 3650 c-14 -27 -21 -59 -10 -49 8 9 35 79 30 79 -2 0 -11 -13
-20 -30z"/>
<path d="M1644 3443 c-146 -183 -358 -275 -591 -257 -101 8 -104 1 -30 -70 62
-61 154 -117 228 -140 84 -27 109 -38 109 -47 0 -5 -60 -69 -134 -144 -91 -91
-142 -135 -156 -135 -12 0 -38 16 -58 36 -26 26 -37 32 -44 22 -12 -20 0 -86
28 -145 24 -49 24 -54 11 -110 -7 -32 -12 -101 -11 -153 5 -214 78 -297 364
-413 41 -16 96 -35 122 -41 43 -10 56 -21 140 -118 131 -151 166 -199 194
-268 28 -70 26 -92 -21 -165 -39 -62 -97 -114 -152 -139 -44 -19 -58 -46 -25
-46 49 0 178 117 213 193 22 51 25 192 4 247 -7 19 -14 27 -14 18 -2 -35 -30
-16 -89 59 -33 43 -81 101 -107 128 -26 28 -58 65 -71 83 -14 18 -29 30 -34
27 -31 -19 -331 119 -396 183 -37 36 -64 87 -64 121 0 12 -6 18 -17 17 -13 -1
-19 11 -26 54 -12 77 -3 210 17 249 17 31 16 33 -8 61 -50 60 -58 150 -9 108
10 -8 33 -20 50 -26 32 -11 34 -9 95 55 116 121 199 198 244 225 24 16 44 33
44 38 0 6 -18 10 -40 10 -97 0 -305 95 -378 173 l-23 24 108 6 c181 10 299 52
418 148 73 59 104 92 134 142 31 51 21 47 -25 -10z"/>
<path d="M3890 3277 c-12 -76 -10 -301 3 -453 6 -69 100 -264 128 -264 10 0
66 -21 124 -47 58 -25 108 -43 112 -40 3 4 8 42 11 86 l4 78 100 -98 c57 -56
97 -103 93 -109 -4 -6 -17 -15 -29 -20 -15 -6 -4 -9 42 -9 42 -1 62 -5 62 -13
0 -7 -14 -42 -31 -78 -39 -82 -79 -180 -79 -193 0 -6 10 -1 23 11 13 12 26 22
30 22 4 0 18 -18 33 -41 14 -22 28 -39 31 -36 9 10 -6 41 -34 71 -23 26 -25
32 -15 58 21 55 87 158 102 158 16 1 -4 20 -86 80 -202 149 -486 556 -561 805
-17 57 -18 58 -21 26 -6 -56 51 -178 172 -368 70 -109 74 -101 -51 -96 -59 2
-113 6 -119 8 -13 4 -31 96 -39 205 -5 67 1 151 21 293 4 30 3 47 -4 47 -5 0
-15 -37 -22 -83z m252 -640 c29 -24 55 -52 57 -63 1 -10 10 -27 19 -37 22 -25
13 -27 -33 -10 -22 8 -58 19 -80 25 -82 21 -126 53 -109 80 9 13 66 48 81 48
7 0 36 -19 65 -43z"/>
<path d="M3456 3188 c8 -27 82 -169 95 -182 17 -19 8 3 -42 103 -49 98 -68
125 -53 79z"/>
<path d="M3566 2977 c3 -10 9 -15 12 -12 3 3 0 11 -7 18 -10 9 -11 8 -5 -6z"/>
<path d="M2921 2931 c-26 -26 -26 -45 0 -88 24 -38 27 -36 58 22 18 34 19 42
7 60 -19 28 -41 30 -65 6z"/>
<path d="M3590 2944 c0 -6 7 -19 15 -30 8 -10 14 -14 14 -9 0 6 -6 19 -14 29
-8 11 -15 15 -15 10z"/>
<path d="M1983 2919 c-30 -19 -31 -21 -15 -38 9 -10 18 -17 19 -16 4 2 34 75
31 74 -2 0 -17 -10 -35 -20z"/>
<path d="M3637 2863 c62 -99 246 -323 257 -312 3 3 -9 21 -27 41 -73 80 -136
157 -181 220 -48 69 -81 103 -49 51z"/>
<path d="M1562 2655 c-20 -10 -21 -13 -7 -19 9 -3 23 0 31 8 27 27 15 33 -24
11z"/>
<path d="M3920 2513 c0 -5 9 -18 20 -28 11 -10 20 -14 20 -8 0 5 -9 18 -20 28
-11 10 -20 14 -20 8z"/>
<path d="M1230 2480 c-9 -6 -10 -10 -3 -10 6 0 15 5 18 10 8 12 4 12 -15 0z"/>
<path d="M2156 2447 c3 -10 9 -15 12 -12 3 3 0 11 -7 18 -10 9 -11 8 -5 -6z"/>
<path d="M3990 2435 c0 -9 113 -115 122 -115 14 0 9 6 -57 64 -36 31 -65 54
-65 51z"/>
<path d="M2181 2423 c5 -13 131 -123 141 -123 16 0 6 10 -68 71 -42 35 -75 58
-73 52z"/>
<path d="M5916 2228 c-4 -101 -14 -214 -22 -253 -16 -79 -73 -257 -84 -265 -5
-3 -7 -77 -6 -165 l2 -159 -75 -91 c-42 -49 -99 -112 -128 -139 -57 -54 -52
-39 -83 -255 -13 -89 -6 -105 10 -24 32 149 56 199 155 318 27 33 70 87 95
120 l45 60 2 140 c1 133 3 146 38 249 42 126 75 358 75 539 0 174 -17 122 -24
-75z"/>
<path d="M4225 2260 c-18 -6 -17 -8 12 -23 21 -12 34 -13 38 -6 4 6 5 11 4 12
-2 2 -11 8 -19 14 -8 6 -24 7 -35 3z"/>
<path d="M3240 2246 c0 -2 7 -7 16 -10 8 -3 12 -2 9 4 -6 10 -25 14 -25 6z"/>
<path d="M2100 2058 c38 -50 100 -166 100 -188 0 -6 5 -10 11 -10 23 0 -25
106 -87 190 -24 33 -48 60 -54 60 -5 0 8 -24 30 -52z"/>
<path d="M2452 2080 c0 -14 2 -19 5 -12 2 6 2 18 0 25 -3 6 -5 1 -5 -13z"/>
<path d="M2625 2024 c77 -75 103 -115 135 -205 11 -30 10 -40 -5 -72 -18 -38
-102 -123 -112 -113 -4 3 -1 16 5 29 30 59 42 104 41 151 l-1 51 -15 -50 c-8
-27 -20 -69 -26 -92 -6 -24 -14 -43 -17 -43 -4 0 -17 34 -29 75 -13 42 -27 78
-32 81 -5 3 -9 13 -9 23 0 10 -7 24 -15 31 -36 30 -2 40 56 16 19 -7 45 -17
59 -21 22 -7 23 -6 12 8 -7 8 -29 18 -49 22 -21 4 -54 15 -75 26 -38 19 -73
25 -66 12 2 -5 23 -48 47 -98 63 -128 82 -197 66 -229 -12 -22 -11 -26 10 -40
28 -18 45 -103 45 -222 0 -77 -1 -79 -30 -96 -17 -9 -30 -25 -30 -34 0 -10 14
-58 32 -108 29 -84 31 -97 24 -169 l-8 -78 -61 -46 c-70 -51 -237 -138 -237
-123 0 5 18 37 40 71 62 96 74 180 35 233 -13 18 -16 18 -55 2 -22 -9 -58 -16
-80 -16 -40 0 -40 0 -40 -37 0 -22 11 -57 25 -82 14 -24 24 -46 22 -48 -12
-11 -61 23 -110 77 -57 64 -69 52 -14 -15 39 -48 113 -95 149 -95 43 0 35 -27
-26 -92 -59 -61 -83 -74 -286 -149 -184 -68 -331 -131 -586 -249 -34 -16 -87
-35 -119 -44 -32 -8 -65 -21 -73 -29 -7 -8 -17 -41 -21 -73 -4 -36 -18 -77
-34 -105 -15 -25 -27 -49 -27 -52 0 -4 92 -7 205 -7 l205 0 0 43 c0 24 -9 59
-21 81 -26 50 -17 57 24 18 17 -17 62 -42 100 -55 67 -24 137 -65 137 -79 0
-5 56 -8 125 -8 109 0 131 3 177 23 216 96 700 335 774 382 29 19 56 30 59 25
9 -15 -3 -29 -48 -51 -23 -12 -91 -70 -152 -128 -60 -59 -147 -137 -192 -175
-46 -37 -83 -70 -83 -72 0 -2 137 -4 304 -4 l303 0 7 38 c6 40 54 172 87 240
12 24 23 62 26 85 6 46 19 77 32 77 12 0 84 -177 128 -317 l38 -123 325 0 325
0 -45 43 c-65 61 -225 205 -296 268 -34 30 -61 55 -60 57 2 1 43 -16 92 -39
137 -63 142 -65 254 -104 58 -21 116 -41 129 -46 23 -9 23 -12 16 -94 -6 -79
-6 -85 12 -85 17 0 20 8 21 58 4 130 36 221 95 266 50 38 99 35 167 -10 69
-45 65 -40 48 -58 -9 -8 -18 -34 -22 -57 l-7 -42 -27 26 c-33 31 -62 34 -85 9
-32 -35 -15 -58 18 -26 15 16 18 16 33 0 16 -16 15 -18 -16 -42 -17 -14 -32
-33 -32 -42 0 -12 -3 -13 -12 -4 -35 35 -38 -11 -3 -50 36 -42 51 -36 51 19
-1 46 0 47 35 58 52 14 66 30 72 77 8 60 29 72 78 48 62 -32 96 -27 140 22 35
37 41 40 64 30 22 -10 24 -15 19 -59 -5 -40 -2 -53 16 -76 12 -15 30 -27 40
-27 25 0 40 -29 40 -79 0 -50 24 -57 34 -10 6 30 8 31 43 24 20 -3 59 -17 86
-31 47 -22 62 -24 215 -24 l164 0 -7 32 c-4 18 -14 47 -22 63 -9 17 -19 52
-24 79 -4 26 -16 54 -26 62 -51 40 -198 122 -368 206 -171 83 -249 119 -435
201 -30 14 -93 37 -140 52 -85 28 -361 131 -433 162 -65 28 -78 116 -30 191
37 57 49 59 73 12 30 -59 42 -51 36 25 -6 80 -11 89 -38 67 -107 -87 -118
-105 -118 -197 0 -78 -11 -83 -86 -32 -90 60 -124 184 -89 325 15 58 16 78 7
92 -9 16 -8 21 6 30 30 19 -56 1 -123 -26 -101 -40 -116 -40 -218 -4 -50 19
-140 57 -199 87 -120 60 -156 69 -84 21 27 -18 65 -47 85 -64 48 -41 217 -145
261 -160 19 -6 36 -16 37 -20 2 -5 -16 -21 -40 -36 -93 -60 -165 -136 -203
-215 l-36 -75 -33 50 c-37 55 -91 104 -177 162 -51 34 -91 52 -252 116 l-49
19 2 86 c1 55 -5 120 -19 185 -23 111 -25 106 46 145 38 20 77 100 77 155 0
73 -97 212 -192 276 -40 26 -35 20 34 -48z m935 -858 c0 -12 16 -49 36 -82 42
-69 66 -123 59 -133 -2 -5 -25 -8 -49 -9 -55 0 -100 -26 -145 -82 -18 -22 -36
-38 -42 -35 -5 4 -9 48 -9 98 0 83 3 97 29 142 37 64 100 137 112 129 5 -3 9
-15 9 -28z m-714 -48 c90 -68 157 -173 168 -261 10 -75 2 -84 -40 -52 -63 48
-162 73 -179 45 -3 -5 -15 -10 -26 -10 -27 0 -25 43 6 104 20 39 25 64 25 123
0 40 4 73 9 73 4 0 21 -10 37 -22z m-448 -130 c27 -27 2 -158 -30 -158 -8 0
-32 19 -55 43 -45 45 -65 94 -42 101 26 7 94 23 105 25 5 0 15 -4 22 -11z
m816 -206 c8 -15 21 -54 29 -86 14 -51 14 -63 0 -109 -8 -29 -19 -56 -23 -61
-9 -9 -66 82 -76 120 -7 25 33 164 46 164 5 0 16 -13 24 -28z m6 -312 c0 -11
-4 -20 -10 -20 -5 0 -10 9 -10 20 0 11 5 20 10 20 6 0 10 -9 10 -20z"/>
<path d="M2330 2035 c0 -5 9 -21 20 -35 11 -14 20 -20 20 -15 0 6 -9 21 -20
35 -11 14 -20 21 -20 15z"/>
<path d="M2456 1988 c-3 -16 -8 -40 -11 -55 -3 -16 -8 -36 -12 -47 -3 -11 -1
-16 5 -12 6 3 14 21 17 39 4 17 11 37 16 43 6 7 6 21 0 35 l-9 24 -6 -27z"/>
<path d="M2371 1965 c1 -19 18 -51 18 -35 0 8 -4 22 -9 30 -5 8 -9 11 -9 5z"/>
<path d="M4515 1935 c-11 -17 -32 -45 -47 -62 l-27 -33 -16 28 -16 27 5 -42
c4 -41 44 -139 53 -130 2 3 -3 24 -11 48 l-15 44 33 35 c42 45 68 88 63 103
-2 6 -12 -2 -22 -18z"/>
<path d="M4976 1824 c-22 -65 -78 -137 -157 -201 -38 -30 -69 -61 -69 -68 0
-17 -175 -135 -199 -135 -11 0 -25 -15 -37 -42 -29 -65 -73 -130 -84 -123 -5
3 -31 -9 -58 -28 -26 -18 -79 -48 -116 -67 l-68 -35 5 -71 c4 -67 17 -106 59
-173 18 -29 4 -36 -41 -23 -90 28 -126 88 -116 193 6 60 13 78 61 151 29 46
61 94 71 108 36 49 78 130 68 130 -7 0 -95 -135 -95 -146 0 -12 -63 -73 -109
-104 -27 -19 -31 -25 -18 -29 15 -6 15 -9 2 -35 -19 -36 -19 -143 -1 -187 29
-69 102 -113 188 -113 73 0 78 14 25 66 -67 64 -96 183 -54 216 30 23 128 72
145 72 31 0 68 36 126 123 47 70 64 88 123 122 46 27 113 84 211 180 78 78
142 141 142 140 0 -16 -40 -124 -61 -168 -58 -114 -150 -183 -280 -208 -32 -6
-59 -16 -59 -22 0 -14 177 -2 261 17 35 8 87 18 114 24 123 24 229 95 265 177
36 83 32 207 -9 284 -21 38 -21 20 0 -54 10 -38 19 -91 19 -118 0 -47 -22
-107 -39 -107 -5 0 -14 -15 -20 -32 -22 -64 -148 -126 -299 -148 -91 -14 -109
-10 -65 13 75 39 171 193 193 307 12 66 13 160 1 160 -5 0 -16 -21 -25 -46z"/>
<path d="M1782 1725 c0 -11 4 -31 8 -45 6 -20 8 -21 8 -5 0 11 -4 31 -8 45 -6
20 -8 21 -8 5z"/>
<path d="M4548 1579 c-18 -10 -26 -49 -10 -49 4 0 15 14 24 30 18 32 14 36
-14 19z"/>
<path d="M3897 1450 c-48 -17 -105 -39 -125 -51 -20 -11 -28 -17 -17 -14 11 4
58 18 103 31 84 25 170 63 142 63 -8 0 -55 -13 -103 -29z"/>
<path d="M1438 1378 c-60 -92 -81 -191 -56 -263 18 -51 78 -93 178 -124 132
-42 315 -16 408 57 l37 30 55 -49 c30 -27 57 -44 59 -38 1 6 -5 19 -15 30 -17
18 -16 19 22 20 21 1 31 3 20 6 -17 5 -18 12 -12 114 8 118 2 131 -33 76 -57
-92 -162 -189 -237 -219 -74 -30 -162 -32 -260 -8 -136 34 -196 74 -208 140
-9 54 36 210 58 202 10 -4 26 17 26 36 0 20 -27 14 -42 -10z m667 -250 c-4
-29 -8 -54 -10 -56 -5 -6 -55 22 -55 30 0 14 51 78 62 78 6 0 7 -20 3 -52z"/>
<path d="M1470 1302 c0 -44 33 -105 73 -136 52 -40 56 -31 8 18 -27 28 -50 64
-62 98 -17 48 -18 50 -19 20z"/>
<path d="M4045 1230 c-3 -5 -1 -10 4 -10 6 0 11 5 11 10 0 6 -2 10 -4 10 -3 0
-8 -4 -11 -10z"/>
<path d="M2270 1133 c-13 -21 -26 -50 -31 -65 -12 -41 18 -37 70 11 39 36 41
40 30 65 -17 37 -43 32 -69 -11z m40 -17 c0 -3 -4 -8 -10 -11 -5 -3 -10 -1
-10 4 0 6 5 11 10 11 6 0 10 -2 10 -4z"/>
<path d="M5498 780 c-4 -14 -8 -36 -7 -50 l0 -25 10 25 c5 13 9 36 7 50 l-3
25 -7 -25z"/>
<path d="M5420 560 c-9 -6 -10 -10 -3 -10 6 0 15 5 18 10 8 12 4 12 -15 0z"/>
<path d="M3181 276 c-27 -72 -53 -175 -48 -189 2 -7 7 4 11 23 11 53 46 121
58 114 7 -5 9 3 4 22 -7 27 -6 28 7 9 8 -11 17 -30 21 -42 4 -13 12 -23 17
-23 5 0 9 -6 9 -14 0 -8 4 -17 9 -20 13 -8 -24 120 -43 149 -9 14 -18 25 -21
25 -2 0 -13 -24 -24 -54z"/>
<path d="M4590 68 c1 -55 18 -68 94 -68 36 0 66 3 66 6 0 3 -7 18 -16 34 -20
32 -72 60 -114 60 -27 0 -30 -3 -30 -32z"/>
<path d="M4498 25 c-5 -23 -2 -25 33 -25 42 0 50 14 22 36 -28 21 -50 17 -55
-11z"/>
</g>
</svg>
